<svg id="Layer_1" data-name="Layer 1" xmlns="http://www.w3.org/2000/svg" xmlns:xlink="http://www.w3.org/1999/xlink" viewBox="0 0 252.16 128.96"><defs><style>.cls-1{fill:none;}.cls-2{clip-path:url(#clip-path);}.cls-3{fill:#252525;}</style><clipPath id="clip-path" transform="translate(0 0)"><rect class="cls-1" width="252.16" height="128.96"/></clipPath></defs><title>beauty-edition-logo</title><g class="cls-2"><path class="cls-3" d="M54.07,67.32c0,.08-.13.18-.11.24s.15.19.23.28c0-.18.09-.35.14-.52ZM21.38,50.14l-.12.18.19,0Zm2.42-.06-.16.27.29,0ZM20.05,57.2c-.11-.19-.22-.39-.34-.58-.12.19-.34.37-.34.57s.2.39.31.59l.37-.58M17.43,69.58c0-.1-.08-.2-.11-.3-.06.08-.16.17-.17.26s.06.2.1.3l.18-.26m-13.66,5a3.62,3.62,0,0,1-1.21-.15,4.52,4.52,0,0,1-1-.93c.35,0,.9.13,1,0a1.45,1.45,0,0,0,.09-1.12,8.31,8.31,0,0,0-1.07-2.2C-.81,66.93,0,63.49.77,60.05a2.73,2.73,0,0,1,.37-.69,8.74,8.74,0,0,0,.17.89c.74,2.27,1.47,4.54,2.24,6.8.53,1.56,1,3.12,3.05,3.43A3.07,3.07,0,0,1,8,71.31c1.89,1.59,2.76,1.48,3.52-.69a54.66,54.66,0,0,0,2.13-7c1.56-7.48,4.32-14.53,7.24-21.56,1.49-3.59,2.34-7.43,3.64-11.11,2.23-6.28,4.59-12.51,6.88-18.76.14-.39.29-.77.4-1.15C33,7,32.82,6.83,28.64,7.78c-3.17.72-6.29,1.69-9.42,2.58a12.34,12.34,0,0,0-1.88.8c-.91.43-1.32,2.18-2.61,1.41a9.31,9.31,0,0,1-2.29-2.66,8,8,0,0,1-.89-1.83c-.89-2.38-.53-2.94,2-3.47,3.32-.7,6.61-1.6,10-2.16A146.43,146.43,0,0,1,38,.43C44.28,0,50.55,0,56.81,0a34.46,34.46,0,0,1,7.3.82c5.59,1.24,8.31,5.41,7.52,11.24-.52,3.8-2.59,6.87-5,9.62a63.31,63.31,0,0,1-9.75,8.49c-2.79,2.15-6.06,3.36-8.79,5.55-1,.84-.78,1.28.11,1.68,2.84,1.26,5.83,2.23,8.57,3.67,5.67,3,10.1,7,11.94,13.61.88,3.11-.17,5.36-1.62,7.55a12.14,12.14,0,0,1-4.43,4.15c-1.55.77-2.35,3-4.69,2.47-.44-.11-1.52.86-1.68,1.49-.33,1.25-.57,1.24-1.35.37a1.07,1.07,0,0,0-1-.07c-.87.82-1.64,1.74-2.44,2.62-.25-1.88-1.39-1.23-2.61-1.09a7.77,7.77,0,0,0-3.68,1.13,6,6,0,0,1-2.67.85q-4.73.45-9.47.67a3.87,3.87,0,0,1-2.1-.6c-.35-.21-.42-.91-.62-1.39.46,0,1.11-.29,1.35-.08a1.9,1.9,0,0,0,2.87,0,3.78,3.78,0,0,1,2.09-1.13c2.84.16,5.4-1.14,8.15-1.33l.51.34-.6-.25a8.77,8.77,0,0,1,1.77-.64c1.3-.16,2.89.25,2.88-1.9,0-.15.37-.36.6-.43,4.91-1.48,8.16-5.18,11.72-8.53a6.67,6.67,0,0,0-1.3-10.52A45.79,45.79,0,0,0,49.51,44c-3.89-1.17-7.82-2.2-11.68-3.47a3.15,3.15,0,0,1-1.65-2,54.35,54.35,0,0,1-1-6c-.14-1.07.65-1.81,1.43-1.33,4.88,3,8.58,0,12.26-2.41C52.1,26.76,55,24.27,58,21.91a54.9,54.9,0,0,0,6.56-5.46,19.81,19.81,0,0,0,3.57-5.9c1-2.42-.53-4.68-3.1-5.09-5.49-.89-11-1.32-16.51-.14a30.1,30.1,0,0,1-5.3.15c-1.09,0-2,.35-1.49,1.71.77,2.16-.16,4-1,5.87-1.55,3.47-3.43,6.79-4.81,10.31-.81,2.06-3,3.62-2.33,6.3.08.3-.88.94-1.42,1.35-.83.61-1.34,1.2-.88,2.37.69,1.74-3.43,1.12-1.79,3s-.5,2.22-.62,3.31c0,.32-.47.67-.8.88-2.43,1.58-2.82,4.2-2.95,6.65a24.65,24.65,0,0,1-4.59,13.42c-1,1.44-.82,3.75-1.17,5.67l-.1-.09a5,5,0,0,1,.29,1.66c-.32,1.67-.77,3.32-1.16,5l.1-.08c-.7.33-.72.65,0,1l-.11-.07A31.24,31.24,0,0,0,15.34,85c-.06,1.06,0,2.13.05,3.19,0,.76.41,1.67.12,2.24a5.51,5.51,0,0,1-2,1.89c-.63.41-4.16-1-4.28-1.77a14.44,14.44,0,0,1-.07-3.94c.31-2.81.78-5.61,1.17-8.41a2.07,2.07,0,0,0,0-.82c-.28-1-.33-2.41-1-2.79a4.43,4.43,0,0,0-3.29-.09c-.92.33-1.59,1-2.41,0L4,73.89c-.09.22-.18.45-.26.67" transform="translate(0 0)"/><path class="cls-3" d="M209.83,24.45a8.48,8.48,0,0,1-.74-2.25,5.72,5.72,0,0,1,.69-1.95l.15.25-.25-.16c0-.79.11-1.59.16-2.39,1.3.91,1.71.45,1.48-1a1.76,1.76,0,0,0,.33-.07c.06,0,.09-.13.13-.19l-.35.37-1.7.71c-4.79.88-9.58,1.86-14.4,2.59a73.15,73.15,0,0,1-8.51.62,4.55,4.55,0,0,1-4.16-2.16c-.44-.68-1.07-1.25-1.48-2-.66-1.14-1.21-2.35-1.81-3.54,1.56-.73,2.81,0,4.15.76a5.55,5.55,0,0,0,2.75.55c4.22-.12,8.44-.35,12.65-.53,2.33-.1,4.65-.17,7-.25.68,0,1.37,0,2.05-.05,4.68-.3,5.78-1.47,6.88-6.23a28.34,28.34,0,0,1,2.62-6.36c.88-1.69,1.53-1.5,3.1-.1C222.63,3,223.4,5,221.94,7.57a7.9,7.9,0,0,0-.62,1.5c-.75,2.49-.16,3.12,2.52,3,6.13-.25,12.26-.42,18.39-.62a6.77,6.77,0,0,1,5.47,2.27,1.57,1.57,0,0,1,.32,1.38,1.56,1.56,0,0,1-1.3.69c-1.85-.4-3.68-.93-5.5-1.47a11.37,11.37,0,0,0-5.95-.36A125.19,125.19,0,0,1,220.81,16a4,4,0,0,0-3.74,2.58c-1.13,2.63-2.12,5.31-3.36,7.88-1.79,3.69-2.46,7.72-3.76,11.55a141.69,141.69,0,0,0-3.74,14.44c-.68,3-1.39,6-2.23,9a25.19,25.19,0,0,0-.83,5.41c-.28,4.81-2,9.57-.2,14.49a18.85,18.85,0,0,0,2.12,3.85c.73,1.13,2.13,2.4.56,4l.11.11a12.6,12.6,0,0,0-2.24-1.6c-4.2-1.8-7.7-7-7.62-11.54,0-.27-.09-.62,0-.81,1.52-2.14.45-4.57.79-6.85s.49-4.77.72-7.16a5.64,5.64,0,0,0,.56-.53s-.06-.22-.1-.34c-.13.31-.27.61-.4.92-2.26,1.31-3.56,3.49-5,5.56a10,10,0,0,1-5.57,4.5c-4.1,1.24-8.16.35-10.56-3.09-1.61-2.31-2.74-4.89-.91-7.8a7,7,0,0,0,.56-3c.17-2.16.15-4.34,1.58-6.21.16-.22-.47-1-.73-1.57l.09.09a2.68,2.68,0,0,0,.34-.73c.11-.61.16-1.24.23-1.86-.5.32-1.16.53-1.47,1-.84,1.22-1.52,2.54-2.29,3.8-3.18,5.22-6.32,10.45-9.59,15.6A20.3,20.3,0,0,1,161,71.21c-2.38,2.27-5.21,1.19-7.68.49-2-.55-2.68-2.9-2.7-4.72a55.09,55.09,0,0,1,.93-9.21A12,12,0,0,1,153,54.5a8.15,8.15,0,0,0,1-1.78c1.51-7.58,4.53-14.68,6.9-22,.85-2.63,1.62-3.24,3.17-2.72a4.12,4.12,0,0,1,2.66,5.24c-.64,1.62-1.48,3.16-2,4.81C163.67,41,163,44,162,46.92a71.31,71.31,0,0,1-3.43,9.51c-1.69,3.41-1.25,6.9-1.3,10.41,0,.33.37.94.58.94a1.79,1.79,0,0,0,1.38-.46q4.07-5.34,8-10.79c3.26-4.51,6.58-9,9.65-13.6,2.82-4.24,6.55-8,7.62-13.26.4-2,1.76-2.3,3.34-1.06a4.8,4.8,0,0,1,1.64,5.82c-1.19,3.18-2.75,6.25-3.64,9.5-1.59,5.75-2.82,11.6-4.12,17.42a9.52,9.52,0,0,0,0,2.87c.33,3.27,2.21,4.38,5,2.66a19.83,19.83,0,0,0,4.54-4,57.44,57.44,0,0,0,8.72-14.65l.22.18-.28-.12a7.56,7.56,0,0,1,1.63-4.87,7,7,0,0,0,.94-2.91c.27-1.17.15-2.51.69-3.51,1-1.76,2.12-3.26,2-5.51-.13-1.78,1.72-2.2,3-2.84l-.06-.07a2.79,2.79,0,0,0,.19.78,2.58,2.58,0,0,0,.8.87c.1.06.63-.34.73-.62.52-1.53,1-3.08,1.42-4.65.09-.31-.27-.73-.42-1.1l-1.06.55Z" transform="translate(0 0)"/><path class="cls-3" d="M88.59,72.37c.14.14.26.38.4.39a1.77,1.77,0,0,0,.63-.2c-.13-.15-.24-.4-.37-.42a1.93,1.93,0,0,0-.66.23m8-39.2c-.32-.42-.81-1.68-1.56-1.86a3.51,3.51,0,0,0-2.8,1,45.57,45.57,0,0,0-4.16,4.93,52.89,52.89,0,0,0-3.39,4.91,2.61,2.61,0,0,0-.28,2.19c.25.42,1.4.51,2.1.4,3.3-.5,5.43-2.78,7.62-5C95.81,38,96.3,36,96.63,33.17M123,46.38l-.87-.9.36,1.37a9,9,0,0,0-1.49.52c-.25.15-.37.54-.55.82,2.24.67.58,1.48.15,2.38a81,81,0,0,0-3.81,8.53,18.19,18.19,0,0,0-.66,5.63A1.76,1.76,0,0,0,119,66.09a7.34,7.34,0,0,0,1.52-1.88c3.55-5.31,7.14-10.58,10.58-15.95,2.06-3.21,3.92-6.54,5.78-9.87a5.9,5.9,0,0,0,.25-2.18,5,5,0,0,0-1.87-.1A14.46,14.46,0,0,0,132,37.65a41.31,41.31,0,0,0-9,8.73m20.31-5.62-.87,2.53.11-.09a7.87,7.87,0,0,0-1.2,1.6,3,3,0,0,0-.05,1.7c.09.39.5.7.76,1l-1.4.05c0,.48.07,1,.11,1.46l.12-.11c-1.76,1.09-.38,2.87-.95,4.22l.11-.08c-.81.11-1.8.11-1,1.38a9.7,9.7,0,0,0,1,1.22l-.11-.06c-.29,2.82-.61,5.65-.86,8.48s-.1,5.36,2.28,7.39c.91.79.46,1.69-.77,1.89a4.59,4.59,0,0,1-4.68-1.76c-2.76-3.39-3.25-7.32-2.89-11.47.09-1.07.38-2.13.48-3.2,0-.31-.29-.66-.44-1-.33.22-.77.37-1,.68-1.07,1.73-1.94,3.61-3.15,5.24A47.84,47.84,0,0,1,123,69.06c-3.46,3.15-10.68,1.15-12.42-3.23a19.32,19.32,0,0,1-.79-3.56c-.17-.92-.29-1.85-.44-2.77-.39.76-.77,1.52-1.17,2.27a10.26,10.26,0,0,1-4.1,4.34c-2.1,1.18-3.85,3-5.81,4.42-3.51,2.59-7.29,4-11.65,2.26l.08.1h-1l.07-.1c-2.07-.93-4.38-1.5-5.59-3.72-4.49-.86-4.17-4.75-4.84-7.89-1.26-5.94.5-11.56,2.48-17,.64-1.79,2-3.31,3.07-5l-.09.08c1-1.72,1.82-3.51,2.91-5.14,2.45-3.67,5.72-6.74,10-7.71,5.63-1.3,10.73,5.18,8.88,10.71a13.29,13.29,0,0,1-1.19,2.1,5.5,5.5,0,0,0,.07-1.21,3.53,3.53,0,0,0-.47-.9,4.35,4.35,0,0,0-.45.61c-.26.48-.48,1-.72,1.45l-.18.21c0-.1.06-.2.08-.3l1.73.08c-2.27,6.26-9.55,10.91-15.14,9.27-1.14-.33-2.83-1-3.39-.55-.88.76-1.17,2.35-1.44,3.64a21.92,21.92,0,0,0,.25,11.2A8,8,0,0,0,88.76,68c4.8.25,8.74-1.93,12.28-4.73,5.15-4.07,9.75-8.75,12.74-14.69a40.87,40.87,0,0,1,12.13-14,1.21,1.21,0,0,0,.21-.35l-.1.09c2-1.72,3.78-3.75,6.37-4.74,2-.74,3.63-.79,5.11.94a10.75,10.75,0,0,0,1.89,1.5,1.09,1.09,0,0,0,1.89-.55,9.13,9.13,0,0,0,.76-2.74c.08-2,1.16-2,2.66-1.72,3,.64,4.43,3.66,3.05,6.88-.67,1.59-1.54,3.1-2.33,4.64-.67-.44-1.27-.85-1.49.45a8.7,8.7,0,0,1-.73,1.88Z" transform="translate(0 0)"/><path class="cls-3" d="M194.86,115.13c-.08-.09-.16-.25-.25-.26s-.19.14-.28.23c.08.09.16.25.25.26s.19-.15.28-.23m15.76-29.95A18,18,0,0,1,213,82.55c7.29-5.45,14.83-10.49,23.39-13.79a3.65,3.65,0,0,0,2.56-2.83c.58-2.64,1.55-5.19,2.05-7.83.92-4.92,1.62-9.88,2.42-14.82l.25-.18-.2.23a12,12,0,0,0-1.9,1.87c-1.4,2.17-2.64,4.44-4,6.63q-4.5,7.24-9.08,14.43a20.18,20.18,0,0,1-2,2.53c-2.51,2.82-5.5,2.49-7.8-.92a10.88,10.88,0,0,1-1.74-7.36c.89-8,4.14-15.18,6.5-22.69.73-2.33,1.49-4.66,2.17-7,.41-1.45,1-2.47,2.79-2.34,2.17.16,4,1.08,4.19,2.61a10,10,0,0,1-.19,4.43c-1.5,4.23-3.33,8.33-4.94,12.52-1.81,4.69-3.63,9.38-5.2,14.15-.38,1.15-.27,3.37.4,3.76,1.43.83,2.24-1.06,3.1-2a29.14,29.14,0,0,0,2.54-3.7c4.65-6.87,9-13.9,14.11-20.48,1.87-2.43,3-5.5,4.19-8.37,1-2.4,1.47-3,2.79-2.62a3.71,3.71,0,0,1,2.75,4.37,18.63,18.63,0,0,1-.55,1.94l.08-.07a13,13,0,0,0-1.46,2.36c-.26.74-1.94,1.94.36,2.39.05,0-.05.51,0,.76.24,1.18-2.55,1.07-1.11,3,.55.76-.14,2.53-.44,3.8-.5,2.11-1.15,4.19-1.71,6.28a21.23,21.23,0,0,0-.5,2.37c-.32,2.14-.66,4.28-.87,6.43-.08.9-.1,2.51.27,2.64,3.46,1.24.51,1.85-.17,2.73a13.41,13.41,0,0,0-2.83,5.68A84.17,84.17,0,0,1,235,97.72c-2.44,4.52-4.27,9.38-6.87,13.8-1.57,2.66-3,5.55-5.86,7.43-1.94,1.28-3.06,3.58-5.08,5a39.16,39.16,0,0,0-3.52,2.51c-4.49,4.12-8.8,2.32-13.33.34-2.81-1.23-4.18-3.84-6.08-5.91-.72-.78-.78-2.29-.85-3.49-.13-2.18-.06-4.37,0-6.55a4.14,4.14,0,0,1,.43-1.22,4.3,4.3,0,0,0,.83,1.27c.21.15.75-.16,1.14-.26l-.11-.12c.61,1.27,1.93,2.15,1.11,4-.45,1.06.26,2.64.52,4,.89,4.52,3.24,6.19,7.78,5.94,4.87-.28,8.31-2.52,11.08-6.53s4.75-8.23,8.3-11.49c.15-.14.07-.52.11-.79l-.06,0c.35-.39.9-.73,1-1.19a33.21,33.21,0,0,1,4.76-10.6,6.67,6.67,0,0,0,.85-3.07,7.32,7.32,0,0,1,2.22-5.05,5.25,5.25,0,0,0,1.85-4.76l-.11.09c.68-.3.6-.62,0-1l.07.08,1.05-6.34c0-.28.05-.55.07-.82l-.55.35c-4.75,2.81-9.41,5.81-14.28,8.39S212.93,88.4,208.93,92c-2.37,2.14-4.15,4.92-6.43,7.16-1,1-.52-.61-.87-.88l-.11.1c.52-.69,1.61-1.55,1.46-2-.38-1.29.94-1.36,1.11-2.14l-.11.08.93-.94-.09.12,5-6.65-.11.08.91-.93-.1.11.8-.9.1.09-.9-.13Z" transform="translate(0 0)"/><path class="cls-3" d="M196.59,104.87l.12,1.35a11.08,11.08,0,0,1-1.91,0,1.16,1.16,0,0,1-.25-.94c.65-1.26,1.39-2.46,2.1-3.68l-.09-.09.91,0,0,0c1.19.55,1.2,1,0,2.39l.08.1c-.32-.67-.64-.66-1,0l.09-.11c-.08.11-.24.22-.23.31a3.37,3.37,0,0,0,.23.65Z" transform="translate(0 0)"/><path class="cls-3" d="M203.2,93.32Q201.61,95,200,96.76l-.2-.19a6.14,6.14,0,0,1,3.43-4.76l-.09-.1c0,.58,0,1.15-.05,1.73Z" transform="translate(0 0)"/><path class="cls-3" d="M25.94,73.69c.56-.23,1.14-.66,1.68-.61S29,73.6,29,74c.19,1-.63,1.29-1.52,1.25l.09.12-.07-.89.37-.65c-.11.23-.23.45-.35.68l-.88-.07.11.11-.93-.93Z" transform="translate(0 0)"/><path class="cls-3" d="M20.17,74.5a4.22,4.22,0,0,1,.89-.65,17.81,17.81,0,0,1,1.75-.56c-.11.3-.24.6-.33.9-.43,1.54-1.28.81-2.07.39l-.35-.19Z" transform="translate(0 0)"/><path class="cls-3" d="M196.65,101.63l1.65-2.47-.08-.07,1.72.94-.08-.08-2.42,1.64h0l-.91,0Z" transform="translate(0 0)"/><path class="cls-3" d="M26.73,75.25a7.92,7.92,0,0,1-1.16.17,7.9,7.9,0,0,1-1.07-.16,3,3,0,0,1,.42-1,4.07,4.07,0,0,1,1-.59l-.11-.07.93.93-.11-.11v.93Z" transform="translate(0 0)"/><path class="cls-3" d="M139.93,53.17c1,.82.75,1.64,0,2.46l.11.07V53.1Z" transform="translate(0 0)"/><path class="cls-3" d="M140.76,49.06c.21.29.54.56.62.88s-.18.62-.28.94a6.8,6.8,0,0,1-.18-.75c0-.39,0-.78,0-1.18Z" transform="translate(0 0)"/><path class="cls-3" d="M195.83,110.65l0-.84-.1.06.91-.93-.1.09c1.08,1.28.14,1.41-.86,1.5Z" transform="translate(0 0)"/><path class="cls-3" d="M195.87,109c.12-.31.25-.63.37-.95l.34,1,.1-.09-.91,0Z" transform="translate(0 0)"/><path class="cls-3" d="M209.74,24.37c-.09.35-.17.7-.26,1.05.11-.32.23-.64.35-1Z" transform="translate(0 0)"/><path class="cls-3" d="M200.66,101.55c-.06.24-.13.48-.19.71l.3-.6Z" transform="translate(0 0)"/><path class="cls-3" d="M199,97.41c-.25.56-.51,1.12-.77,1.68l.08.07c.27-.55.53-1.1.8-1.64Z" transform="translate(0 0)"/><path class="cls-3" d="M143.24,43.3c-.16.31-.33.62-.5.93-.07-.35-.13-.69-.2-1l-.11.09.86.06Z" transform="translate(0 0)"/><path class="cls-3" d="M205.63,89.2l-.77.87.1.1.78-.86Z" transform="translate(0 0)"/><path class="cls-3" d="M209.84,86.8a2.75,2.75,0,0,1-.13-.47c0-.09.06-.18.09-.28l-.07-.11v.94Z" transform="translate(0 0)"/><path class="cls-3" d="M209.8,86.05l.82-.87-.08-.06v.94l.1-.11h-.92Z" transform="translate(0 0)"/><path class="cls-3" d="M235.27,81.06c-.35-.26-1-.52,0-.79l-.08-.08c0,.32,0,.64,0,1Z" transform="translate(0 0)"/><path class="cls-3" d="M200,96.76l-1,.65.11.11c.24-.32.47-.64.71-1Z" transform="translate(0 0)"/><path class="cls-3" d="M201.63,98.28,201,98l.48.42Z" transform="translate(0 0)"/></g><polygon class="cls-3" points="199.86 99.95 199.94 100.03 200.09 99.75 199.86 99.95"/><g class="cls-2"><path class="cls-3" d="M200.77,101.66l.36-.45c0,.08-.06.18-.12.22a1.8,1.8,0,0,1-.35.12Z" transform="translate(0 0)"/><path class="cls-3" d="M204.09,94.19l-.89-.87-.1.12h1l-.08-.13c0,.32,0,.63,0,1Z" transform="translate(0 0)"/><path class="cls-3" d="M204.05,93.45c.26-.55.52-.64.77,0l.09-.12H204Z" transform="translate(0 0)"/><path class="cls-3" d="M197.46,104l-.87.88.07.06v-1l-.09.11h1Z" transform="translate(0 0)"/><path class="cls-3" d="M224.62,105.68a2,2,0,0,1-.13-.25c0,.1,0,.2.07.3Z" transform="translate(0 0)"/><path class="cls-3" d="M195.87,109.81a3.5,3.5,0,0,1-.23-.58c0-.06.15-.16.23-.24l-.1-.07v1Z" transform="translate(0 0)"/><path class="cls-3" d="M203.24,91.81l.85-.79-.11-.1-.83.79Z" transform="translate(0 0)"/><path class="cls-3" d="M204.09,91l.87-.85-.1-.1-.88.85Z" transform="translate(0 0)"/></g><polygon class="cls-3" points="176.72 50.06 177 49.88 176.91 49.79 176.72 50.06"/><g class="cls-2"><path class="cls-3" d="M143.29,43.35l.21-.15-.25.1Z" transform="translate(0 0)"/><path class="cls-3" d="M143.2,40.87l.91,0-.06-.07-.75-.08Z" transform="translate(0 0)"/><path class="cls-3" d="M144.11,40.91l.2-.16-.26.09Z" transform="translate(0 0)"/><path class="cls-3" d="M80.91,39.19l-.32-.36c.07,0,.18.06.2.12a.85.85,0,0,1,0,.32Z" transform="translate(0 0)"/><path class="cls-3" d="M126.12,34.24l-.29-.13c.07.07.13.15.19.22Z" transform="translate(0 0)"/><path class="cls-3" d="M208.14,28.61l.21-.15-.27.08Z" transform="translate(0 0)"/><path class="cls-3" d="M27.49,75.25c-.25.8-.51.52-.76,0l-.08.12h.93Z" transform="translate(0 0)"/><path class="cls-3" d="M20.06,74.39c-.1.17-.2.34-.31.5,0-.07,0-.18.08-.22a2.16,2.16,0,0,1,.34-.17Z" transform="translate(0 0)"/><path class="cls-3" d="M86.62,72.79h-.83l-.07.1h1Z" transform="translate(0 0)"/><path class="cls-3" d="M18.43,72.86v.82l.11.07c0-.32,0-.65,0-1Z" transform="translate(0 0)"/><path class="cls-3" d="M54.07,67.32c0,.08-.13.18-.11.24s.15.19.23.28c0-.18.09-.35.14-.52ZM21.38,50.14l-.12.18.19,0Zm2.42-.06-.16.27.29,0ZM20.05,57.2c-.11-.19-.22-.39-.34-.58-.12.19-.34.37-.34.57s.2.39.31.59l.37-.58M17.43,69.58c0-.1-.08-.2-.11-.3-.06.08-.16.17-.17.26s.06.2.1.3l.18-.26m-13.66,5a3.62,3.62,0,0,1-1.21-.15,4.52,4.52,0,0,1-1-.93c.35,0,.9.13,1,0a1.45,1.45,0,0,0,.09-1.12,8.31,8.31,0,0,0-1.07-2.2C-.81,66.93,0,63.49.77,60.05a2.73,2.73,0,0,1,.37-.69,8.74,8.74,0,0,0,.17.89c.74,2.27,1.47,4.54,2.24,6.8.53,1.56,1,3.12,3.05,3.43A3.07,3.07,0,0,1,8,71.31c1.89,1.59,2.76,1.48,3.52-.69a54.66,54.66,0,0,0,2.13-7c1.56-7.48,4.32-14.53,7.24-21.56,1.49-3.59,2.34-7.43,3.64-11.11,2.23-6.28,4.59-12.51,6.88-18.76.14-.39.29-.77.4-1.15C33,7,32.82,6.83,28.64,7.78c-3.17.72-6.29,1.69-9.42,2.58a12.34,12.34,0,0,0-1.88.8c-.91.43-1.32,2.18-2.61,1.41a9.31,9.31,0,0,1-2.29-2.66,8,8,0,0,1-.89-1.83c-.89-2.38-.53-2.94,2-3.47,3.32-.7,6.61-1.6,10-2.16A146.43,146.43,0,0,1,38,.43C44.28,0,50.55,0,56.81,0a34.46,34.46,0,0,1,7.3.82c5.59,1.24,8.31,5.41,7.52,11.24-.52,3.8-2.59,6.87-5,9.62a63.31,63.31,0,0,1-9.75,8.49c-2.79,2.15-6.06,3.36-8.79,5.55-1,.84-.78,1.28.11,1.68,2.84,1.26,5.83,2.23,8.57,3.67,5.67,3,10.1,7,11.94,13.61.88,3.11-.17,5.36-1.62,7.55a12.14,12.14,0,0,1-4.43,4.15c-1.55.77-2.35,3-4.69,2.47-.44-.11-1.52.86-1.68,1.49-.33,1.25-.57,1.24-1.35.37a1.07,1.07,0,0,0-1-.07c-.87.82-1.64,1.74-2.44,2.62-.25-1.88-1.39-1.23-2.61-1.09a7.77,7.77,0,0,0-3.68,1.13,6,6,0,0,1-2.67.85q-4.73.45-9.47.67a3.87,3.87,0,0,1-2.1-.6c-.35-.21-.42-.91-.62-1.39.46,0,1.11-.29,1.35-.08a1.9,1.9,0,0,0,2.87,0,3.78,3.78,0,0,1,2.09-1.13c2.84.16,5.4-1.14,8.15-1.33l.51.34-.6-.25a8.77,8.77,0,0,1,1.77-.64c1.3-.16,2.89.25,2.88-1.9,0-.15.37-.36.6-.43,4.91-1.48,8.16-5.18,11.72-8.53a6.67,6.67,0,0,0-1.3-10.52A45.79,45.79,0,0,0,49.51,44c-3.89-1.17-7.82-2.2-11.68-3.47a3.15,3.15,0,0,1-1.65-2,54.35,54.35,0,0,1-1-6c-.14-1.07.65-1.81,1.43-1.33,4.88,3,8.58,0,12.26-2.41C52.1,26.76,55,24.27,58,21.91a54.9,54.9,0,0,0,6.56-5.46,19.81,19.81,0,0,0,3.57-5.9c1-2.42-.53-4.68-3.1-5.09-5.49-.89-11-1.32-16.51-.14a30.1,30.1,0,0,1-5.3.15c-1.09,0-2,.35-1.49,1.71.77,2.16-.16,4-1,5.87-1.55,3.47-3.43,6.79-4.81,10.31-.81,2.06-3,3.62-2.33,6.3.08.3-.88.94-1.42,1.35-.83.61-1.34,1.2-.88,2.37.69,1.74-3.43,1.12-1.79,3s-.5,2.22-.62,3.31c0,.32-.47.67-.8.88-2.43,1.58-2.82,4.2-2.95,6.65a24.65,24.65,0,0,1-4.59,13.42c-1,1.44-.82,3.75-1.17,5.67l-.1-.09a5,5,0,0,1,.29,1.66c-.32,1.67-.77,3.32-1.16,5l.1-.08c-.7.33-.72.65,0,1l-.11-.07A31.24,31.24,0,0,0,15.34,85c-.06,1.06,0,2.13.05,3.19,0,.76.41,1.67.12,2.24a5.51,5.51,0,0,1-2,1.89c-.63.41-4.16-1-4.28-1.77a14.44,14.44,0,0,1-.07-3.94c.31-2.81.78-5.61,1.17-8.41a2.07,2.07,0,0,0,0-.82c-.28-1-.33-2.41-1-2.79a4.43,4.43,0,0,0-3.29-.09c-.92.33-1.59,1-2.41,0L4,73.89c-.09.22-.18.45-.26.67" transform="translate(0 0)"/><path class="cls-3" d="M209.83,24.45a8.48,8.48,0,0,1-.74-2.25,5.72,5.72,0,0,1,.69-1.95l.15.25-.25-.16c0-.79.11-1.59.16-2.39,1.3.91,1.71.45,1.48-1a1.76,1.76,0,0,0,.33-.07c.06,0,.09-.13.13-.19l-.35.37-1.7.71c-4.79.88-9.58,1.86-14.4,2.59a73.15,73.15,0,0,1-8.51.62,4.55,4.55,0,0,1-4.16-2.16c-.44-.68-1.07-1.25-1.48-2-.66-1.14-1.21-2.35-1.81-3.54,1.56-.73,2.81,0,4.15.76a5.55,5.55,0,0,0,2.75.55c4.22-.12,8.44-.35,12.65-.53,2.33-.1,4.65-.17,7-.25.68,0,1.37,0,2.05-.05,4.68-.3,5.78-1.47,6.88-6.23a28.34,28.34,0,0,1,2.62-6.36c.88-1.69,1.53-1.5,3.1-.1C222.63,3,223.4,5,221.94,7.57a7.9,7.9,0,0,0-.62,1.5c-.75,2.49-.16,3.12,2.52,3,6.13-.25,12.26-.42,18.39-.62a6.77,6.77,0,0,1,5.47,2.27,1.57,1.57,0,0,1,.32,1.38,1.56,1.56,0,0,1-1.3.69c-1.85-.4-3.68-.93-5.5-1.47a11.37,11.37,0,0,0-5.95-.36A125.19,125.19,0,0,1,220.81,16a4,4,0,0,0-3.74,2.58c-1.13,2.63-2.12,5.31-3.36,7.88-1.79,3.69-2.46,7.72-3.76,11.55a141.69,141.69,0,0,0-3.74,14.44c-.68,3-1.39,6-2.23,9a25.19,25.19,0,0,0-.83,5.41c-.28,4.81-2,9.57-.2,14.49a18.85,18.85,0,0,0,2.12,3.85c.73,1.13,2.13,2.4.56,4l.11.11a12.6,12.6,0,0,0-2.24-1.6c-4.2-1.8-7.7-7-7.62-11.54,0-.27-.09-.62,0-.81,1.52-2.14.45-4.57.79-6.85s.49-4.77.72-7.16a5.64,5.64,0,0,0,.56-.53s-.06-.22-.1-.34c-.13.31-.27.61-.4.92-2.26,1.31-3.56,3.49-5,5.56a10,10,0,0,1-5.57,4.5c-4.1,1.24-8.16.35-10.56-3.09-1.61-2.31-2.74-4.89-.91-7.8a7,7,0,0,0,.56-3c.17-2.16.15-4.34,1.58-6.21.16-.22-.47-1-.73-1.57l.09.09a2.68,2.68,0,0,0,.34-.73c.11-.61.16-1.24.23-1.86-.5.32-1.16.53-1.47,1-.84,1.22-1.52,2.54-2.29,3.8-3.18,5.22-6.32,10.45-9.59,15.6A20.3,20.3,0,0,1,161,71.21c-2.38,2.27-5.21,1.19-7.68.49-2-.55-2.68-2.9-2.7-4.72a55.09,55.09,0,0,1,.93-9.21A12,12,0,0,1,153,54.5a8.15,8.15,0,0,0,1-1.78c1.51-7.58,4.53-14.68,6.9-22,.85-2.63,1.62-3.24,3.17-2.72a4.12,4.12,0,0,1,2.66,5.24c-.64,1.62-1.48,3.16-2,4.81C163.67,41,163,44,162,46.92a71.31,71.31,0,0,1-3.43,9.51c-1.69,3.41-1.25,6.9-1.3,10.41,0,.33.37.94.58.94a1.79,1.79,0,0,0,1.38-.46q4.07-5.34,8-10.79c3.26-4.51,6.58-9,9.65-13.6,2.82-4.24,6.55-8,7.62-13.26.4-2,1.76-2.3,3.34-1.06a4.8,4.8,0,0,1,1.64,5.82c-1.19,3.18-2.75,6.25-3.64,9.5-1.59,5.75-2.82,11.6-4.12,17.42a9.52,9.52,0,0,0,0,2.87c.33,3.27,2.21,4.38,5,2.66a19.83,19.83,0,0,0,4.54-4,57.44,57.44,0,0,0,8.72-14.65l.22.18-.28-.12a7.56,7.56,0,0,1,1.63-4.87,7,7,0,0,0,.94-2.91c.27-1.17.15-2.51.69-3.51,1-1.76,2.12-3.26,2-5.51-.13-1.78,1.72-2.2,3-2.84l-.06-.07a2.79,2.79,0,0,0,.19.78,2.58,2.58,0,0,0,.8.87c.1.06.63-.34.73-.62.52-1.53,1-3.08,1.42-4.65.09-.31-.27-.73-.42-1.1l-1.06.55Z" transform="translate(0 0)"/><path class="cls-3" d="M88.59,72.37c.14.14.26.38.4.39a1.77,1.77,0,0,0,.63-.2c-.13-.15-.24-.4-.37-.42a1.93,1.93,0,0,0-.66.23m8-39.2c-.32-.42-.81-1.68-1.56-1.86a3.51,3.51,0,0,0-2.8,1,45.57,45.57,0,0,0-4.16,4.93,52.89,52.89,0,0,0-3.39,4.91,2.61,2.61,0,0,0-.28,2.19c.25.42,1.4.51,2.1.4,3.3-.5,5.43-2.78,7.62-5C95.81,38,96.3,36,96.63,33.17M123,46.38l-.87-.9.36,1.37a9,9,0,0,0-1.49.52c-.25.15-.37.54-.55.82,2.24.67.58,1.48.15,2.38a81,81,0,0,0-3.81,8.53,18.19,18.19,0,0,0-.66,5.63A1.76,1.76,0,0,0,119,66.09a7.34,7.34,0,0,0,1.52-1.88c3.55-5.31,7.14-10.58,10.58-15.95,2.06-3.21,3.92-6.54,5.78-9.87a5.9,5.9,0,0,0,.25-2.18,5,5,0,0,0-1.87-.1A14.46,14.46,0,0,0,132,37.65a41.31,41.31,0,0,0-9,8.73m20.31-5.62-.87,2.53.11-.09a7.87,7.87,0,0,0-1.2,1.6,3,3,0,0,0-.05,1.7c.09.39.5.7.76,1l-1.4.05c0,.48.07,1,.11,1.46l.12-.11c-1.76,1.09-.38,2.87-.95,4.22l.11-.08c-.81.11-1.8.11-1,1.38a9.7,9.7,0,0,0,1,1.22l-.11-.06c-.29,2.82-.61,5.65-.86,8.48s-.1,5.36,2.28,7.39c.91.79.46,1.69-.77,1.89a4.59,4.59,0,0,1-4.68-1.76c-2.76-3.39-3.25-7.32-2.89-11.47.09-1.07.38-2.13.48-3.2,0-.31-.29-.66-.44-1-.33.22-.77.37-1,.68-1.07,1.73-1.94,3.61-3.15,5.24A47.84,47.84,0,0,1,123,69.06c-3.46,3.15-10.68,1.15-12.42-3.23a19.32,19.32,0,0,1-.79-3.56c-.17-.92-.29-1.85-.44-2.77-.39.76-.77,1.52-1.17,2.27a10.26,10.26,0,0,1-4.1,4.34c-2.1,1.18-3.85,3-5.81,4.42-3.51,2.59-7.29,4-11.65,2.26l.08.1h-1l.07-.1c-2.07-.93-4.38-1.5-5.59-3.72-4.49-.86-4.17-4.75-4.84-7.89-1.26-5.94.5-11.56,2.48-17,.64-1.79,2-3.31,3.07-5l-.09.08c1-1.72,1.82-3.51,2.91-5.14,2.45-3.67,5.72-6.74,10-7.71,5.63-1.3,10.73,5.18,8.88,10.71a13.29,13.29,0,0,1-1.19,2.1,5.5,5.5,0,0,0,.07-1.21,3.53,3.53,0,0,0-.47-.9,4.35,4.35,0,0,0-.45.61c-.26.48-.48,1-.72,1.45l-.18.21c0-.1.06-.2.08-.3l1.73.08c-2.27,6.26-9.55,10.91-15.14,9.27-1.14-.33-2.83-1-3.39-.55-.88.76-1.17,2.35-1.44,3.64a21.92,21.92,0,0,0,.25,11.2A8,8,0,0,0,88.76,68c4.8.25,8.74-1.93,12.28-4.73,5.15-4.07,9.75-8.75,12.74-14.69a40.87,40.87,0,0,1,12.13-14,1.21,1.21,0,0,0,.21-.35l-.1.09c2-1.72,3.78-3.75,6.37-4.74,2-.74,3.63-.79,5.11.94a10.75,10.75,0,0,0,1.89,1.5,1.09,1.09,0,0,0,1.89-.55,9.13,9.13,0,0,0,.76-2.74c.08-2,1.16-2,2.66-1.72,3,.64,4.43,3.66,3.05,6.88-.67,1.59-1.54,3.1-2.33,4.64-.67-.44-1.27-.85-1.49.45a8.7,8.7,0,0,1-.73,1.88Z" transform="translate(0 0)"/><path class="cls-3" d="M194.86,115.13c-.08-.09-.16-.25-.25-.26s-.19.14-.28.23c.08.09.16.25.25.26s.19-.15.28-.23m15.76-29.95A18,18,0,0,1,213,82.55c7.29-5.45,14.83-10.49,23.39-13.79a3.65,3.65,0,0,0,2.56-2.83c.58-2.64,1.55-5.19,2.05-7.83.92-4.92,1.62-9.88,2.42-14.82l.25-.18-.2.23a12,12,0,0,0-1.9,1.87c-1.4,2.17-2.64,4.44-4,6.63q-4.5,7.24-9.08,14.43a20.18,20.18,0,0,1-2,2.53c-2.51,2.82-5.5,2.49-7.8-.92a10.88,10.88,0,0,1-1.74-7.36c.89-8,4.14-15.18,6.5-22.69.73-2.33,1.49-4.66,2.17-7,.41-1.45,1-2.47,2.79-2.34,2.17.16,4,1.08,4.19,2.61a10,10,0,0,1-.19,4.43c-1.5,4.23-3.33,8.33-4.94,12.52-1.81,4.69-3.63,9.38-5.2,14.15-.38,1.15-.27,3.37.4,3.76,1.43.83,2.24-1.06,3.1-2a29.14,29.14,0,0,0,2.54-3.7c4.65-6.87,9-13.9,14.11-20.48,1.87-2.43,3-5.5,4.19-8.37,1-2.4,1.47-3,2.79-2.62a3.71,3.71,0,0,1,2.75,4.37,18.63,18.63,0,0,1-.55,1.94l.08-.07a13,13,0,0,0-1.46,2.36c-.26.74-1.94,1.94.36,2.39.05,0-.05.51,0,.76.24,1.18-2.55,1.07-1.11,3,.55.76-.14,2.53-.44,3.8-.5,2.11-1.15,4.19-1.71,6.28a21.23,21.23,0,0,0-.5,2.37c-.32,2.14-.66,4.28-.87,6.43-.08.9-.1,2.51.27,2.64,3.46,1.24.51,1.85-.17,2.73a13.41,13.41,0,0,0-2.83,5.68A84.17,84.17,0,0,1,235,97.72c-2.44,4.52-4.27,9.38-6.87,13.8-1.57,2.66-3,5.55-5.86,7.43-1.94,1.28-3.06,3.58-5.08,5a39.16,39.16,0,0,0-3.52,2.51c-4.49,4.12-8.8,2.32-13.33.34-2.81-1.23-4.18-3.84-6.08-5.91-.72-.78-.78-2.29-.85-3.49-.13-2.18-.06-4.37,0-6.55a4.14,4.14,0,0,1,.43-1.22,4.3,4.3,0,0,0,.83,1.27c.21.15.75-.16,1.14-.26l-.11-.12c.61,1.27,1.93,2.15,1.11,4-.45,1.06.26,2.64.52,4,.89,4.52,3.24,6.19,7.78,5.94,4.87-.28,8.31-2.52,11.08-6.53s4.75-8.23,8.3-11.49c.15-.14.07-.52.11-.79l-.06,0c.35-.39.9-.73,1-1.19a33.21,33.21,0,0,1,4.76-10.6,6.67,6.67,0,0,0,.85-3.07,7.32,7.32,0,0,1,2.22-5.05,5.25,5.25,0,0,0,1.85-4.76l-.11.09c.68-.3.6-.62,0-1l.07.08,1.05-6.34c0-.28.05-.55.07-.82l-.55.35c-4.75,2.81-9.41,5.81-14.28,8.39S212.93,88.4,208.93,92c-2.37,2.14-4.15,4.92-6.43,7.16-1,1-.52-.61-.87-.88l-.11.1c.52-.69,1.61-1.55,1.46-2-.38-1.29.94-1.36,1.11-2.14l-.11.08.93-.94-.09.12,5-6.65-.11.08.91-.93-.1.11.8-.9.1.09-.9-.13Z" transform="translate(0 0)"/><path class="cls-3" d="M196.59,104.87l.12,1.35a11.08,11.08,0,0,1-1.91,0,1.16,1.16,0,0,1-.25-.94c.65-1.26,1.39-2.46,2.1-3.68l-.09-.09.91,0,0,0c1.19.55,1.2,1,0,2.39l.08.1c-.32-.67-.64-.66-1,0l.09-.11c-.08.11-.24.22-.23.31a3.37,3.37,0,0,0,.23.65Z" transform="translate(0 0)"/><path class="cls-3" d="M203.2,93.32Q201.61,95,200,96.76l-.2-.19a6.14,6.14,0,0,1,3.43-4.76l-.09-.1c0,.58,0,1.15-.05,1.73Z" transform="translate(0 0)"/><path class="cls-3" d="M25.94,73.69c.56-.23,1.14-.66,1.68-.61S29,73.6,29,74c.19,1-.63,1.29-1.52,1.25l.09.12-.07-.89.37-.65c-.11.23-.23.45-.35.68l-.88-.07.11.11-.93-.93Z" transform="translate(0 0)"/><path class="cls-3" d="M20.17,74.5a4.22,4.22,0,0,1,.89-.65,17.81,17.81,0,0,1,1.75-.56c-.11.3-.24.6-.33.9-.43,1.54-1.28.81-2.07.39l-.35-.19Z" transform="translate(0 0)"/><path class="cls-3" d="M196.65,101.63l1.65-2.47-.08-.07,1.72.94-.08-.08-2.42,1.64h0l-.91,0Z" transform="translate(0 0)"/><path class="cls-3" d="M26.73,75.25a7.92,7.92,0,0,1-1.16.17,7.9,7.9,0,0,1-1.07-.16,3,3,0,0,1,.42-1,4.07,4.07,0,0,1,1-.59l-.11-.07.93.93-.11-.11v.93Z" transform="translate(0 0)"/><path class="cls-3" d="M139.93,53.17c1,.82.75,1.64,0,2.46l.11.07V53.1Z" transform="translate(0 0)"/><path class="cls-3" d="M140.76,49.06c.21.29.54.56.62.88s-.18.62-.28.94a6.8,6.8,0,0,1-.18-.75c0-.39,0-.78,0-1.18Z" transform="translate(0 0)"/><path class="cls-3" d="M195.83,110.65l0-.84-.1.06.91-.93-.1.09c1.08,1.28.14,1.41-.86,1.5Z" transform="translate(0 0)"/><path class="cls-3" d="M195.87,109c.12-.31.25-.63.37-.95l.34,1,.1-.09-.91,0Z" transform="translate(0 0)"/><path class="cls-3" d="M209.74,24.37c-.09.35-.17.7-.26,1.05.11-.32.23-.64.35-1Z" transform="translate(0 0)"/><path class="cls-3" d="M200.66,101.55c-.06.24-.13.48-.19.71l.3-.6Z" transform="translate(0 0)"/><path class="cls-3" d="M199,97.41c-.25.56-.51,1.12-.77,1.68l.08.07c.27-.55.53-1.1.8-1.64Z" transform="translate(0 0)"/><path class="cls-3" d="M143.24,43.3c-.16.31-.33.62-.5.93-.07-.35-.13-.69-.2-1l-.11.09.86.06Z" transform="translate(0 0)"/><path class="cls-3" d="M205.63,89.2l-.77.87.1.1.78-.86Z" transform="translate(0 0)"/><path class="cls-3" d="M209.84,86.8a2.75,2.75,0,0,1-.13-.47c0-.09.06-.18.09-.28l-.07-.11v.94Z" transform="translate(0 0)"/><path class="cls-3" d="M209.8,86.05l.82-.87-.08-.06v.94l.1-.11h-.92Z" transform="translate(0 0)"/><path class="cls-3" d="M235.27,81.06c-.35-.26-1-.52,0-.79l-.08-.08c0,.32,0,.64,0,1Z" transform="translate(0 0)"/><path class="cls-3" d="M200,96.76l-1,.65.11.11c.24-.32.47-.64.71-1Z" transform="translate(0 0)"/><path class="cls-3" d="M201.63,98.28,201,98l.48.42Z" transform="translate(0 0)"/></g><polygon class="cls-3" points="199.86 99.95 199.94 100.03 200.09 99.75 199.86 99.95"/><g class="cls-2"><path class="cls-3" d="M200.77,101.66l.36-.45c0,.08-.06.18-.12.22a1.8,1.8,0,0,1-.35.12Z" transform="translate(0 0)"/><path class="cls-3" d="M204.09,94.19l-.89-.87-.1.12h1l-.08-.13c0,.32,0,.63,0,1Z" transform="translate(0 0)"/><path class="cls-3" d="M204.05,93.45c.26-.55.52-.64.77,0l.09-.12H204Z" transform="translate(0 0)"/><path class="cls-3" d="M197.46,104l-.87.88.07.06v-1l-.09.11h1Z" transform="translate(0 0)"/><path class="cls-3" d="M224.62,105.68a2,2,0,0,1-.13-.25c0,.1,0,.2.07.3Z" transform="translate(0 0)"/><path class="cls-3" d="M195.87,109.81a3.5,3.5,0,0,1-.23-.58c0-.06.15-.16.23-.24l-.1-.07v1Z" transform="translate(0 0)"/><path class="cls-3" d="M203.24,91.81l.85-.79-.11-.1-.83.79Z" transform="translate(0 0)"/><path class="cls-3" d="M204.09,91l.87-.85-.1-.1-.88.85Z" transform="translate(0 0)"/></g><polygon class="cls-3" points="176.72 50.06 177 49.88 176.91 49.79 176.72 50.06"/><g class="cls-2"><path class="cls-3" d="M143.29,43.35l.21-.15-.25.1Z" transform="translate(0 0)"/><path class="cls-3" d="M143.2,40.87l.91,0-.06-.07-.75-.08Z" transform="translate(0 0)"/><path class="cls-3" d="M144.11,40.91l.2-.16-.26.09Z" transform="translate(0 0)"/><path class="cls-3" d="M80.91,39.19l-.32-.36c.07,0,.18.06.2.12a.85.85,0,0,1,0,.32Z" transform="translate(0 0)"/><path class="cls-3" d="M126.12,34.24l-.29-.13c.07.07.13.15.19.22Z" transform="translate(0 0)"/><path class="cls-3" d="M208.14,28.61l.21-.15-.27.08Z" transform="translate(0 0)"/><path class="cls-3" d="M27.49,75.25c-.25.8-.51.52-.76,0l-.08.12h.93Z" transform="translate(0 0)"/><path class="cls-3" d="M20.06,74.39c-.1.17-.2.34-.31.5,0-.07,0-.18.08-.22a2.16,2.16,0,0,1,.34-.17Z" transform="translate(0 0)"/><path class="cls-3" d="M86.62,72.79h-.83l-.07.1h1Z" transform="translate(0 0)"/><path class="cls-3" d="M18.43,72.86v.82l.11.07c0-.32,0-.65,0-1Z" transform="translate(0 0)"/></g><polygon class="cls-3" points="41.31 111.69 29.07 111.69 29.07 88.26 41.22 88.26 41.22 90.64 31.8 90.64 31.8 97.89 40.85 97.89 40.85 100.27 31.8 100.27 31.8 109.32 41.31 109.32 41.31 111.69"/><g class="cls-2"><path class="cls-3" d="M54.83,109.32h1.93A6.39,6.39,0,0,0,62,106.85,10.85,10.85,0,0,0,64,100,10.86,10.86,0,0,0,62,93.14a6.34,6.34,0,0,0-5.27-2.51H54.83ZM52.11,88.26h4.61a9.37,9.37,0,0,1,7.38,3.13c1.85,2.09,2.77,5,2.77,8.6s-.94,6.6-2.81,8.64a9.39,9.39,0,0,1-7.22,3.06H52.11Z" transform="translate(0 0)"/></g><polygon class="cls-3" points="87.86 111.69 77.22 111.69 77.22 109.32 81.25 109.32 81.25 90.64 77.22 90.64 77.22 88.26 87.86 88.26 87.86 90.64 83.98 90.64 83.98 109.32 87.86 109.32 87.86 111.69"/><polygon class="cls-3" points="115.08 90.47 107.85 90.47 107.85 111.69 105.15 111.69 105.15 90.47 97.89 90.47 97.89 88.26 115.08 88.26 115.08 90.47"/><polygon class="cls-3" points="135.49 111.69 124.84 111.69 124.84 109.32 128.88 109.32 128.88 90.64 124.84 90.64 124.84 88.26 135.49 88.26 135.49 90.64 131.6 90.64 131.6 109.32 135.49 109.32 135.49 111.69"/><g class="cls-2"><path class="cls-3" d="M154.05,109.75q5.19,0,5.19-9.77t-5.19-9.78a4.16,4.16,0,0,0-3.84,2.54,16,16,0,0,0-1.32,7.24,16.08,16.08,0,0,0,1.31,7.27,4.15,4.15,0,0,0,3.85,2.5m0-21.94a6.76,6.76,0,0,1,6,3.12q2.07,3.1,2.07,9t-2.06,9a7.34,7.34,0,0,1-12,0c-1.38-2.08-2.07-5.09-2.07-9s.68-7,2.06-9a6.73,6.73,0,0,1,6-3.12" transform="translate(0 0)"/></g><polygon class="cls-3" points="184.97 111.69 181.95 111.69 173.55 93.19 173.55 111.69 170.82 111.69 170.82 88.26 173.86 88.26 182.3 106.6 182.3 88.26 184.97 88.26 184.97 111.69"/></svg>